<svg width="179" height="49" viewBox="0 0 179 49" fill="none" xmlns="http://www.w3.org/2000/svg">
<path d="M6.32473 46.9902H5.01762V43.8382H1.30711V46.9902H0V39.9902H1.30711V42.8557H5.01762V39.9902H6.32473V46.9902Z" fill="black"/>
<path d="M8.55315 39.9891H9.7618V43.5902C9.7618 43.9544 9.7618 44.359 9.72012 44.7232C9.67844 45.0873 9.67844 45.3706 9.67844 45.492H9.72012L13.7628 39.9486H15.2632V46.8677H14.0546V43.3475C14.0546 42.781 14.0962 42.1336 14.1379 41.3648H14.0962L10.0119 46.9486H8.51147V39.9891H8.55315Z" fill="black"/>
<path d="M19.6105 43.3678L16.6761 39.9899H18.0595L20.91 43.3678V39.9899H22.1676V43.3678L25.0181 39.9899H26.4015L23.4671 43.3678L26.5272 46.9899H25.102L22.1676 43.4492V46.9899H20.91V43.4492L17.9756 46.9899H16.5084L19.6105 43.3678Z" fill="black"/>
<path d="M34.1667 46.9899H32.8595V43.8378H29.149V46.9899H27.8419V39.9899H29.149V42.8554H32.8595V39.9899H34.1667V46.9899Z" fill="black"/>
<path d="M36.3932 39.9887H37.6018V43.5899C37.6018 43.954 37.6018 44.3586 37.5601 44.7228C37.5185 45.087 37.5185 45.3702 37.4768 45.4916H37.5185L41.5612 39.9482H43.0616V46.8673H41.8529V43.3471C41.8529 42.7806 41.8946 42.1332 41.9363 41.3644H41.8946L37.8102 46.9482H36.3098V39.9887H36.3932Z" fill="black"/>
<path d="M45.4182 40.034H46.6263V43.6333C46.6263 43.9973 46.6263 44.4017 46.5846 44.7657C46.543 45.1297 46.543 45.4128 46.543 45.5341H46.5846L50.6252 39.9936H52.1249V46.9091H50.9168V43.3907C50.9168 42.8245 50.9585 42.1774 51.0001 41.409H50.9585L46.8762 46.99H45.3766V40.034H45.4182ZM48.834 39.4678C48.0842 39.4678 47.501 39.3465 47.1678 39.1039C46.7929 38.8612 46.6263 38.4568 46.5846 37.8906H47.751C47.7926 38.1333 47.8343 38.295 47.9176 38.4164C48.0009 38.5377 48.1259 38.6186 48.2508 38.6995C48.3758 38.7803 48.6258 38.7803 48.9173 38.7803C49.2923 38.7803 49.5422 38.6995 49.7088 38.5781C49.8754 38.4568 50.0004 38.2142 50.0421 37.8906H51.2084C51.1668 38.4164 50.9168 38.8208 50.5419 39.1039C50.1254 39.3465 49.5838 39.4678 48.834 39.4678Z" fill="black"/>
<path d="M63.7616 46.9899H62.4545V43.8378H58.744V46.9899H57.4369V39.9899H58.744V42.8554H62.4545V39.9899H63.7616V46.9899Z" fill="black"/>
<path d="M73.2031 43.4913C73.2031 44.645 72.8636 45.5515 72.227 46.1696C71.5479 46.7876 70.6566 47.1173 69.4258 47.1173C68.195 47.1173 67.2612 46.7876 66.6246 46.1696C65.988 45.5515 65.6484 44.645 65.6484 43.4913C65.6484 42.3375 65.988 41.431 66.6246 40.8129C67.2612 40.1949 68.2374 39.8652 69.4258 39.8652C70.6142 39.8652 71.5479 40.1949 72.227 40.8129C72.8636 41.4722 73.2031 42.3375 73.2031 43.4913ZM67.0066 43.4913C67.0066 44.3566 67.2188 45.0158 67.6008 45.4691C67.9828 45.9223 68.6194 46.1284 69.3833 46.1284C70.1897 46.1284 70.7415 45.9223 71.1659 45.4691C71.5479 45.0158 71.7601 44.3566 71.7601 43.4913C71.7601 42.626 71.5479 41.9667 71.1659 41.5134C70.7839 41.0602 70.1897 40.8541 69.3833 40.8541C68.5769 40.8541 67.9828 41.0602 67.6008 41.5134C67.2188 41.9667 67.0066 42.626 67.0066 43.4913Z" fill="black"/>
<path d="M75.0144 39.9899H77.4178C78.5141 39.9899 79.3152 40.1127 79.8212 40.3992C80.3272 40.6858 80.5802 41.1361 80.5802 41.7501C80.5802 42.1595 80.4537 42.4869 80.2007 42.7735C79.9477 43.06 79.6104 43.2238 79.1466 43.3057V43.3466C79.6947 43.4285 80.1164 43.6331 80.4115 43.8788C80.6645 44.1653 80.791 44.5337 80.791 44.984C80.791 45.5981 80.538 46.0893 80.032 46.4577C79.526 46.8261 78.8092 46.9899 77.9238 46.9899H75.0144V39.9899ZM76.3215 42.8963H77.5865C78.1346 42.8963 78.5563 42.8144 78.8092 42.6507C79.0622 42.4869 79.1887 42.2413 79.1887 41.8729C79.1887 41.5454 79.0622 41.2998 78.7671 41.177C78.4719 41.0542 78.0503 40.9723 77.46 40.9723H76.3215V42.8963ZM76.3215 43.7969V46.0074H77.713C78.2611 46.0074 78.6827 45.9255 78.9779 45.7209C79.2731 45.5571 79.3995 45.2296 79.3995 44.8612C79.3995 44.4928 79.2731 44.2062 78.9779 44.0425C78.6827 43.8788 78.2611 43.7969 77.6708 43.7969H76.3215Z" fill="black"/>
<path d="M87.3061 39.9899V40.9723H83.8486V46.9899H82.5415V39.9899H87.3061Z" fill="black"/>
<path d="M95.868 43.4902C95.868 44.6436 95.5286 45.5499 94.8921 46.1678C94.2132 46.7857 93.3222 47.1152 92.0917 47.1152C90.8612 47.1152 89.9278 46.7857 89.2913 46.1678C88.6549 45.5499 88.3154 44.6436 88.3154 43.4902C88.3154 42.3368 88.6549 41.4306 89.2913 40.8127C89.9278 40.1948 90.9037 39.8652 92.0917 39.8652C93.2798 39.8652 94.2132 40.1948 94.8921 40.8127C95.5286 41.4718 95.868 42.3368 95.868 43.4902ZM89.7156 43.4902C89.7156 44.3553 89.9278 45.0144 90.3096 45.4675C90.6915 45.9206 91.328 46.1266 92.0917 46.1266C92.8979 46.1266 93.4495 45.9206 93.8738 45.4675C94.2557 45.0144 94.4678 44.3553 94.4678 43.4902C94.4678 42.6252 94.2557 41.9661 93.8738 41.513C93.4919 41.0598 92.8979 40.8539 92.0917 40.8539C91.2855 40.8539 90.6915 41.0598 90.3096 41.513C89.8853 41.9661 89.7156 42.6252 89.7156 43.4902Z" fill="black"/>
<path d="M102.994 42.1185C102.994 42.8554 102.698 43.4285 102.15 43.7969C101.602 44.2062 100.801 44.37 99.7891 44.37H98.9458V46.9899H97.6387V39.9899H99.9577C100.97 39.9899 101.729 40.1536 102.235 40.522C102.741 40.8905 102.994 41.4226 102.994 42.1185ZM98.9879 43.3875H99.7047C100.379 43.3875 100.885 43.2647 101.181 43.06C101.476 42.8554 101.644 42.5279 101.644 42.1185C101.644 41.7092 101.518 41.4226 101.223 41.2179C100.928 41.0133 100.506 40.9314 99.9156 40.9314H98.9879V43.3875Z" fill="black"/>
<path d="M111.863 43.4902C111.863 44.6436 111.523 45.5499 110.887 46.1678C110.208 46.7857 109.317 47.1152 108.087 47.1152C106.856 47.1152 105.923 46.7857 105.286 46.1678C104.65 45.5499 104.31 44.6436 104.31 43.4902C104.31 42.3368 104.65 41.4306 105.286 40.8127C105.923 40.1948 106.899 39.8652 108.087 39.8652C109.275 39.8652 110.208 40.1948 110.887 40.8127C111.566 41.4718 111.863 42.3368 111.863 43.4902ZM105.71 43.4902C105.71 44.3553 105.923 45.0144 106.305 45.4675C106.686 45.9206 107.323 46.1266 108.087 46.1266C108.893 46.1266 109.444 45.9206 109.869 45.4675C110.251 45.0144 110.463 44.3553 110.463 43.4902C110.463 42.6252 110.251 41.9661 109.869 41.513C109.487 41.0598 108.893 40.8539 108.087 40.8539C107.28 40.8539 106.686 41.0598 106.305 41.513C105.923 41.9661 105.71 42.6252 105.71 43.4902Z" fill="black"/>
<path d="M112.693 46.0298H113.328C113.878 45.1669 114.301 44.2218 114.682 43.1534C115.063 42.085 115.275 41.0166 115.359 39.9482H119.507V45.9887H120.565V48.9062H119.296V46.9749H113.963V48.9062H112.693V46.0298ZM116.46 40.9755C116.375 41.7152 116.164 42.537 115.825 43.5232C115.486 44.4683 115.105 45.3313 114.682 46.0298H118.195V40.9755H116.46Z" fill="black"/>
<path d="M132.153 43.4902C132.153 44.6436 131.811 45.5499 131.169 46.1678C130.485 46.7857 129.586 47.1152 128.346 47.1152C127.106 47.1152 126.165 46.7857 125.523 46.1678C124.882 45.5499 124.539 44.6436 124.539 43.4902C124.539 42.3368 124.882 41.4306 125.523 40.8127C126.165 40.1948 127.148 39.8652 128.346 39.8652C129.544 39.8652 130.485 40.1948 131.169 40.8127C131.811 41.4718 132.153 42.3368 132.153 43.4902ZM125.908 43.4902C125.908 44.3553 126.122 45.0144 126.507 45.4675C126.892 45.9206 127.533 46.1266 128.303 46.1266C129.116 46.1266 129.672 45.9206 130.1 45.4675C130.485 45.0144 130.699 44.3553 130.699 43.4902C130.699 42.6252 130.485 41.9661 130.1 41.513C129.715 41.0598 129.116 40.8539 128.303 40.8539C127.491 40.8539 126.892 41.0598 126.507 41.513C126.122 41.9661 125.908 42.6252 125.908 43.4902Z" fill="black"/>
<path d="M140.321 46.9899H138.995V43.8378H135.232V46.9899H133.906V39.9899H135.232V42.8554H138.995V39.9899H140.321V46.9899Z" fill="black"/>
<path d="M148.477 46.9924H147.17V40.9727H144.892C144.597 43.0202 144.386 44.4125 144.217 45.1496C144.048 45.8867 143.795 46.4191 143.5 46.7057C143.205 46.9924 142.783 47.1152 142.235 47.1152C141.982 47.1152 141.729 47.0743 141.475 46.9924V46.0505C141.686 46.1324 141.897 46.1734 142.066 46.1734C142.319 46.1734 142.53 46.0505 142.699 45.7639C142.867 45.4772 142.994 44.863 143.205 43.9211C143.374 42.9792 143.584 41.6688 143.838 39.9899H148.52V46.9924H148.477Z" fill="black"/>
<path d="M155.68 46.9482L154.884 44.9948H151.824L151.027 46.9482H149.644L152.62 39.9482H154.046L157.022 46.9482H155.68ZM154.549 44.018L153.794 42.1459C153.752 42.0238 153.668 41.8203 153.584 41.5355C153.501 41.2506 153.417 41.0471 153.375 40.925C153.291 41.332 153.123 41.7389 152.956 42.2273L152.243 44.0587H154.549V44.018Z" fill="black"/>
<path d="M158.282 40.0101H159.494V43.6217C159.494 43.9869 159.494 44.3927 159.453 44.758C159.411 45.1232 159.411 45.4072 159.411 45.529H159.453L163.507 39.9695H165.012V46.9087H163.8V43.3783C163.8 42.8101 163.841 42.1609 163.883 41.3898H163.841L159.745 46.9899H158.24V40.0101H158.282ZM161.71 39.442C160.957 39.442 160.372 39.3203 160.038 39.0768C159.662 38.8333 159.494 38.4275 159.453 37.8594H160.623C160.665 38.1029 160.706 38.2652 160.79 38.3869C160.874 38.5087 160.999 38.5898 161.124 38.671C161.25 38.7521 161.501 38.7521 161.793 38.7521C162.169 38.7521 162.42 38.671 162.587 38.5492C162.755 38.4275 162.88 38.184 162.922 37.8594H164.092C164.05 38.3869 163.8 38.7927 163.423 39.0768C163.005 39.3203 162.462 39.442 161.71 39.442Z" fill="black"/>
<path d="M173.675 46.9899H172.368V43.8378H168.657V46.9899H167.35V39.9899H168.657V42.8554H172.368V39.9899H173.675V46.9899Z" fill="black"/>
<path d="M115 2H85V32H115V2Z" fill="#0086E6"/>
<path d="M114.957 2H99.9784V16.9785H114.957V2Z" fill="#00B9F2"/>
<path d="M99.9785 16.9784H85V31.9569H99.9785V16.9784Z" fill="#005FAD"/>
<path d="M135.281 19.6293H126.153V31.9569H122V2H136.709C144.712 2 146.962 6.56897 146.962 10.7931C146.962 14.1552 145.101 18.0345 139.78 19.1121L148 32H143.155L135.281 19.6293ZM126.196 16.2241H136.103C141.078 16.2241 142.636 13.5948 142.636 10.7931C142.636 7.99138 141.078 5.49138 136.146 5.49138H126.196V16.2241Z" fill="#005FAD"/>
<path d="M156.063 2V19.8189C156.063 25.1431 159.491 29.1362 165.5 29.1362C171.509 29.1362 174.895 25.186 174.895 19.8189V2H179V20.0336C179 27.4187 174.133 32.7 165.5 32.7C156.782 32.7 152 27.4617 152 20.0336V2H156.063Z" fill="#005FAD"/>
<path d="M0 2H11.2152L23.5006 15.9943C24.5279 17.321 25.3841 18.3909 26.0262 19.7175H26.2402V15.0528V2H36V32H25.4697L12.6278 18.0057C11.9001 17.107 10.4875 15.2668 10.0595 14.1969H9.84542V18.8188V32H0V2Z" fill="#005FAD"/>
<path d="M42 2H53.2152L65.5006 15.9943C66.5279 17.321 67.3841 18.3909 68.0262 19.7175H68.2402V15.0528V2H78V32H67.4269L54.585 18.0057C53.8573 17.107 52.4447 15.2668 52.0166 14.1969H51.8026V18.8188V32H42V2Z" fill="#005FAD"/>
</svg>

